<?xml version="1.0" encoding="windows-1252"?>
<!-- Uploaded to: SVG Repo, www.svgrepo.com, Generator: SVG Repo Mixer Tools -->
<!DOCTYPE svg PUBLIC "-//W3C//DTD SVG 1.1//EN" "http://www.w3.org/Graphics/SVG/1.1/DTD/svg11.dtd">
<svg fill="#000000" height="800px" width="800px" version="1.1" id="Capa_1" xmlns="http://www.w3.org/2000/svg" xmlns:xlink="http://www.w3.org/1999/xlink" viewBox="0 0 297.074 297.074" xml:space="preserve">
<path d="M278.505,67.192c-2.092-2.096-5.24-2.723-7.976-1.587c-2.735,1.133-4.519,3.803-4.519,6.763  c0,15.73-12.81,28.526-28.561,28.526c-11.679,0-21.735-7.053-26.148-17.122l32.971-32.98c5.715-5.716,5.715-14.987,0-20.705  l-1.574-1.572c-2.857-2.859-6.604-4.289-10.352-4.289c-3.744,0-7.49,1.43-10.349,4.289l-33.737,33.747l-37.51-18.761  c-2.817-1.408-6.219-0.856-8.449,1.37c-2.225,2.228-2.777,5.632-1.369,8.452l18.754,37.517L4.286,246.28  C1.542,249.024,0,252.749,0,256.632c0,3.884,1.542,7.608,4.286,10.354l1.574,1.573c2.744,2.746,6.469,4.289,10.351,4.289  c3.881,0,7.607-1.543,10.351-4.289L181.511,113.57c10.067,4.415,17.119,14.475,17.119,26.154c0,15.648-13.216,28.868-28.86,28.868  c-2.96,0-5.629,1.783-6.761,4.52c-1.133,2.735-0.507,5.884,1.585,7.977c11.978,11.98,28.504,18.579,46.529,18.579  c21.647,0,43.516-9.457,59.996-25.944c15.063-15.067,24.202-34.329,25.728-54.237C298.407,99.154,291.893,80.582,278.505,67.192z"/>
</svg>